# xmcd
#
# Track frame offsets:
#	182
#	25722
#	46057
#	63002
#	83775
#	97320
#	112225
#	132027
#	150752
#	169307
#
# Disc length: 2504 seconds
# Revision: 33
# Processed by: cddbd v1.5.2PL0 Copyright (c) Steve Scherf et al.
# Submitted via: dBpowerAMP V12.0
#
DISCID=7409c60a
DTITLE=John Lee Hooker - The Healer [dBP-LITE-FLAC@]
DYEAR=1989
DGENRE=Blues
TTITLE0=The Healer - John Lee Hooker and Carlos Santana and The Santana Band
TTITLE1=I'm In The Mood - John Lee Hooker and Bonnie Rait
TTITLE2=Baby Lee - John Lee Hooker and Robert Cray
TTITLE3=Cuttin' Out - John Lee Hooker and Canned Heat
TTITLE4=Think Twice Before You Go - John Lee Hooker and Las Lobos
TTITLE5=Sally Mae - John Lee Hooker and George Thorogood
TTITLE6=That's Alright - John Lee Hooker and Charlie Musselwhite
TTITLE7=Rockin' Chair
TTITLE8=My Dream
TTITLE9=No Substitute
EXTD=
EXTT0=
EXTT1=
EXTT2=
EXTT3=
EXTT4=
EXTT5=
EXTT6=
EXTT7=
EXTT8=
EXTT9=
PLAYORDER=
